<svg width="40" height="40" viewBox="0 0 40 40" fill="none" xmlns="http://www.w3.org/2000/svg">
<path fill-rule="evenodd" clip-rule="evenodd" d="M20 35C28.2843 35 35 28.2843 35 20C35 11.7157 28.2843 5 20 5C11.7157 5 5 11.7157 5 20C5 28.2843 11.7157 35 20 35ZM27.4349 15.6402C27.7885 15.2159 27.7311 14.5853 27.3069 14.2318C26.8826 13.8782 26.252 13.9355 25.8984 14.3598L18.9672 22.6774C18.6204 23.0934 18.4255 23.3238 18.2699 23.4653L18.264 23.4707L18.2576 23.4659C18.0898 23.339 17.8748 23.1272 17.4918 22.7443L14.0404 19.2929C13.6499 18.9024 13.0168 18.9024 12.6262 19.2929C12.2357 19.6834 12.2357 20.3166 12.6262 20.7071L16.0776 24.1585L16.1184 24.1993L16.1185 24.1994C16.445 24.526 16.759 24.8402 17.0513 25.0611C17.3786 25.3087 17.8074 25.5415 18.3568 25.5165C18.9062 25.4916 19.3121 25.221 19.6157 24.9448C19.8867 24.6983 20.1711 24.3569 20.4666 24.0021L20.5036 23.9577L27.4349 15.6402Z" fill="#E5EAD7"/>
</svg>
